<?xml version="1.0" standalone="no"?>
<!DOCTYPE svg PUBLIC "-//W3C//DTD SVG 20010904//EN"
 "http://www.w3.org/TR/2001/REC-SVG-20010904/DTD/svg10.dtd">
<svg version="1.0" xmlns="http://www.w3.org/2000/svg"
 width="225.000000pt" height="225.000000pt" viewBox="0 0 225.000000 225.000000"
 preserveAspectRatio="xMidYMid meet">

<g transform="translate(0.000000,225.000000) scale(0.100000,-0.100000)"
fill="#000000" stroke="none">
<path d="M1329 2248 c0 -2 -1 -39 -3 -83 -3 -101 -34 -183 -87 -235 -22 -21
-78 -66 -127 -101 -138 -99 -189 -147 -236 -218 -56 -85 -70 -130 -63 -199 9
-90 64 -188 164 -292 80 -84 113 -107 113 -78 0 7 -16 49 -35 94 -45 106 -75
222 -75 296 0 53 3 61 38 100 20 22 90 85 154 139 134 113 177 162 214 243 23
51 26 67 22 140 -3 60 -11 96 -31 139 -14 31 -31 57 -36 57 -6 0 -11 -1 -12
-2z"/>
<path d="M1420 1727 c-130 -65 -182 -100 -243 -165 -57 -62 -67 -86 -67 -161
0 -78 22 -138 81 -218 53 -74 59 -99 34 -168 -30 -83 -9 -87 62 -12 110 116
116 193 27 334 -44 67 -52 109 -29 156 18 38 125 148 218 222 53 43 64 65 34
65 -7 0 -59 -24 -117 -53z"/>
</g>
</svg>
