<?xml version="1.0" standalone="no"?>
<!DOCTYPE svg PUBLIC "-//W3C//DTD SVG 20010904//EN"
 "http://www.w3.org/TR/2001/REC-SVG-20010904/DTD/svg10.dtd">
<svg version="1.0" xmlns="http://www.w3.org/2000/svg"
 width="431.000000pt" height="117.000000pt" viewBox="0 0 431.000000 117.000000"
 preserveAspectRatio="xMidYMid meet">

<g transform="translate(0.000000,117.000000) scale(0.100000,-0.100000)"
fill="#000000" stroke="none">
<path d="M3195 1115 l-25 -24 0 -509 c0 -500 0 -510 21 -536 l20 -26 514 0
c490 0 514 1 536 19 l24 19 0 522 0 522 -24 19 c-22 18 -46 19 -533 19 l-509
0 -24 -25z m270 -169 c39 -16 55 -42 55 -86 0 -48 -38 -80 -95 -80 -35 0 -52
6 -70 25 -33 32 -34 93 -2 122 39 35 62 39 112 19z m552 -247 c30 -15 52 -35
71 -67 27 -46 27 -50 30 -239 l4 -193 -86 0 -86 0 0 143 c0 203 -13 237 -93
237 -23 0 -41 -8 -58 -26 -23 -25 -24 -32 -27 -190 l-4 -164 -84 0 -84 0 0
255 0 255 85 0 85 0 0 -32 0 -32 28 27 c15 14 38 30 52 36 43 17 120 13 167
-10z m-507 -244 l0 -255 -85 0 -85 0 0 255 0 255 85 0 85 0 0 -255z"/>
<path d="M584 926 c-63 -53 -20 -146 67 -146 53 0 89 34 89 85 0 77 -95 114
-156 61z"/>
<path d="M30 570 l0 -370 230 0 230 0 0 75 0 74 -147 3 -148 3 -3 293 -2 292
-80 0 -80 0 0 -370z"/>
<path d="M1400 570 l0 -370 85 0 85 0 0 84 c0 68 4 88 19 107 11 13 21 22 24
19 3 -3 33 -51 67 -107 l61 -103 100 0 c54 0 99 2 99 5 0 3 -48 73 -106 156
-92 131 -104 152 -92 167 7 9 51 59 97 110 l84 93 -104 -3 -104 -3 -72 -103
-73 -104 -2 209 -3 208 -82 3 -83 3 0 -371z"/>
<path d="M2830 808 l0 -131 -23 21 c-74 70 -230 47 -306 -44 -98 -119 -74
-344 46 -428 78 -54 222 -44 272 20 25 32 31 30 31 -11 l0 -35 75 0 75 0 0
370 0 370 -85 0 -85 0 0 -132z m-65 -202 c46 -20 65 -60 65 -141 0 -101 -32
-144 -105 -145 -73 0 -115 53 -115 147 0 63 26 114 70 135 42 22 42 22 85 4z"/>
<path d="M2065 724 c-61 -21 -110 -68 -142 -131 -57 -118 -26 -288 65 -348 80
-53 202 -70 319 -45 72 16 73 17 61 78 -9 43 -14 52 -27 47 -34 -14 -168 -17
-204 -6 -34 12 -87 61 -87 82 0 5 75 9 175 9 l175 0 6 26 c10 40 -3 121 -29
178 -26 56 -69 96 -126 115 -46 15 -137 13 -186 -5z m140 -100 c19 -8 45 -55
45 -84 0 -19 -6 -20 -100 -20 -64 0 -100 4 -100 11 0 16 20 51 43 77 21 22 75
30 112 16z"/>
<path d="M1073 710 c-17 -6 -45 -24 -62 -41 l-31 -31 0 36 0 36 -85 0 -85 0 0
-255 0 -255 85 0 85 0 0 163 c0 138 3 165 18 183 43 54 110 54 143 1 17 -28
19 -52 19 -189 l0 -158 85 0 85 0 0 155 c0 221 -21 293 -97 337 -38 23 -116
31 -160 18z"/>
<path d="M567 703 c-4 -3 -7 -118 -7 -255 l0 -248 85 0 85 0 0 255 0 255 -78
0 c-43 0 -82 -3 -85 -7z"/>
</g>
</svg>
